<svg xmlns="http://www.w3.org/2000/svg" width="16" height="7" viewBox="0 0 16 7">
  <path id="Path_2411" data-name="Path 2411" d="M178.975,53.373a3.093,3.093,0,0,1-.683-.737c-.241-.361-.457-.632-.741-.615a3.459,3.459,0,0,0-.328-.39c-.033,0-.087.342-.087.342a.809.809,0,0,0-.656.137c-.2.109-.386.23-.571.352a25.424,25.424,0,0,1-3.915.724c-.149-.026-.287-.048-.4-.066a2.49,2.49,0,0,0-1.557.288h-.008a6.453,6.453,0,0,0-.7-.28c-.746-.3-2.639-.027-2.852-.581a1.288,1.288,0,0,0,.222.988c-.364-.013-.669-.027-.857-.043a.459.459,0,0,1-.055-.021.181.181,0,0,0-.13,0,.227.227,0,0,0-.094.053.061.061,0,0,1-.04.021c-.088.01-.381.039-.625.055-.556.053.1-1-.493-1.124.019-.049.259.041.425-.242a.455.455,0,0,0,.028-.384,1.073,1.073,0,0,0,.157-.066.035.035,0,0,0,.015-.048.037.037,0,0,0-.025-.018c-.052-.01-.093.014-.109-.035a.6.6,0,0,0-.8-.376.608.608,0,0,0-.327.882.627.627,0,0,1,.085-.022.116.116,0,0,1,0,.168.124.124,0,0,1-.06.03c-.7.134-.9,1.827-.35,2.24a2.179,2.179,0,0,0,.525.286c-.078.031-.117.049-.117.049l-.715-.178a.1.1,0,0,0-.125.071.1.1,0,0,0,.008.069l.262.5a.127.127,0,0,0,.166.058h0l.052-.025.225.2a1.561,1.561,0,0,0,.213,2.251,1.7,1.7,0,0,0,2.33-.205,1.586,1.586,0,0,0,.263-.425l.556.111a3.664,3.664,0,0,1,1.648-1.135c.765-.106,1.738-.623,2.142-.507s.3.908.219,1.066c-.032.067.129.12.251.19.082.047.16.1.219.135l.052.034.047.032.08.054a.54.54,0,0,0-.08.052,1.847,1.847,0,0,0,.328.222.889.889,0,0,0,.25.09c.278.218.539.456.559.6.47.116.557,0,.557,0s-.188-.36-.4-.443a.714.714,0,0,1-.116-.078,7.022,7.022,0,0,0,.739,0,.418.418,0,0,0,.426-.3s.5-.961.579-1.151.547-.169.732-.264a4.468,4.468,0,0,0,.754.264c.273.105.732.37,1.07.507s.754.813.929.781.087.116.087.116l.154.116.5-.116c-.219-.317-.686-.435-1.213-.961-.561-.559-1.426-1.027-1.508-1.257.082-.142.057-.532.186-.929s.769-.816,1.066-1.168c.437.3.892.182,1.112.454.133.164.346.165.478-.089C179.057,53.49,178.975,53.373,178.975,53.373Zm-14.358.741a.016.016,0,0,1,.014-.01,3.263,3.263,0,0,0,1-.081c.03-.007.03-.068.035-.1a.06.06,0,0,1,.06-.05c.493,0,.387-.115.347-.211.249.034.537.058.844.074a2.174,2.174,0,0,0,1.6.156c.318-.062.589-.126.813-.151l.249-.009a.675.675,0,0,1,.148.026,1.085,1.085,0,0,0-.133.2,16.808,16.808,0,0,0-4.16.47l-.8-.293A.015.015,0,0,1,164.617,54.114Zm2.237.222-.4.508-.612-.268C166.148,54.492,166.487,54.411,166.853,54.336Zm-1.058,1.33-.541.681a.428.428,0,0,0-.562.031l-.608-.626A1.342,1.342,0,0,1,165.8,55.666Zm-2.107-.321c.189-.087.444-.2.763-.32h0c.11.022.216.037.317.051a1.674,1.674,0,0,0-.923.43Zm2.226,2.208a1.34,1.34,0,0,1-1.848,0,1.231,1.231,0,0,1-.092-1.686l.656.589a.4.4,0,0,0,.149.553.426.426,0,0,0,.572-.144.392.392,0,0,0-.011-.426l.564-.681.011.01h0A1.232,1.232,0,0,1,165.915,57.553Zm2.3-1.815c-.121,0-.044.324-.929.918a1.251,1.251,0,0,1-.651.182,1.566,1.566,0,0,0-.513-1.344l.025-.03c.381.13.771.254.771.254l.04-.095s.184.067.213.075a.062.062,0,0,0,.07-.032l.362-.591c.014-.028-.058-.163-.152-.108-.14.082-.363.222-.363.222l.015-.059-.5-.219.521-.629A18.419,18.419,0,0,1,169.568,54a1.892,1.892,0,0,0-.162.818C169.406,55.831,168.336,55.737,168.215,55.737Zm5.355,1.531c-.1.148-.7.127-.951.105s-.251-.063-.3-.2c-.029-.093-.124-.089-.236-.061-.041-.026-.079-.048-.114-.066a.914.914,0,0,1-.186-.813,1.871,1.871,0,0,0,.033-.866,9.386,9.386,0,0,1,2.055.693A3.719,3.719,0,0,1,173.57,57.268Zm.267-2.57c-.067.238-1.38-.065-1.877-.2s.209-1.042.209-1.042l1.76.11A8.72,8.72,0,0,1,173.836,54.7Zm.8-1.538a4.213,4.213,0,0,1-1.521.167,4.638,4.638,0,0,1-.5-.045c1.052-.144,2.037-.31,2.795-.5A3.8,3.8,0,0,1,174.632,53.16Z" transform="translate(-163 -51.259)" fill="#fff"/>
</svg>
