<svg xmlns="http://www.w3.org/2000/svg" xmlns:xlink="http://www.w3.org/1999/xlink" width="730" height="231" viewBox="0 0 730 231">
  <defs>
    <filter id="Knob" x="26" y="128" width="50" height="50" filterUnits="userSpaceOnUse">
      <feOffset input="SourceAlpha"/>
      <feGaussianBlur stdDeviation="5" result="blur"/>
      <feFlood flood-color="#15b50f" flood-opacity="0.38"/>
      <feComposite operator="in" in2="blur"/>
      <feComposite in="SourceGraphic"/>
    </filter>
    <clipPath id="clip-path">
      <rect id="Rectangle_1088" data-name="Rectangle 1088" width="116" height="49" transform="translate(7944 1627)" fill="#fff" stroke="#707070" stroke-width="1"/>
    </clipPath>
  </defs>
  <g id="Group_2228" data-name="Group 2228" transform="translate(-7330 -1450)">
    <g id="Group_2227" data-name="Group 2227" transform="translate(0 -109)">
      <rect id="Rectangle_1029" data-name="Rectangle 1029" width="730" height="1" transform="translate(7330 1626)" fill="#fff" opacity="0.6"/>
      <rect id="Rectangle_1030" data-name="Rectangle 1030" width="730" height="1" transform="translate(7330 1669)" fill="#fff" opacity="0.6"/>
      <g id="Input_Select_Standard" data-name="Input / Select / Standard" transform="translate(7776 1694)">
        <g id="Input_Text_Field_Standard_End_Icon" data-name="Input / Text Field / Standard / End Icon">
          <g id="content">
            <line id="Indicator" x2="159.5" transform="translate(0.5 28)" fill="none" stroke="#0f73b5" stroke-linecap="square" stroke-width="2"/>
            <g id="content-2" data-name="content">
              <g id="container" transform="translate(0 -20)">
                <g id="Trailing_icon" data-name="Trailing icon" transform="translate(136 20)">
                  <rect id="Boundary" width="24" height="24" fill="none"/>
                </g>
                <text id="Value" transform="translate(0 23)" fill="#fff" font-size="14" font-family="Lato-Regular, Lato" letter-spacing="0em"><tspan x="0" y="14">Winx</tspan></text>
              </g>
            </g>
          </g>
        </g>
      </g>
      <g id="Group_2192" data-name="Group 2192" transform="translate(-345 -991)">
        <g id="Input_Checkbox_Element_Checkbox" data-name="Input / Checkbox / Element / Checkbox" transform="translate(8322 2591)">
          <path id="Checkbox_-_Unchecked" data-name="Checkbox - Unchecked" d="M16,18H2a2,2,0,0,1-2-2V2A2,2,0,0,1,2,0H16a2,2,0,0,1,2,2V16A2,2,0,0,1,16,18ZM2,2V16H16V2Z" fill="#fff"/>
        </g>
        <text id="alert" transform="translate(8331 2564)" fill="#fff" font-size="14" font-family="Lato-Regular, Lato"><tspan x="-20.73" y="0">ALERT</tspan></text>
        <g id="Input_Checkbox_Element_Checkbox-2" data-name="Input / Checkbox / Element / Checkbox" transform="translate(8322 2634)">
          <path id="Checkbox_-_Unchecked-2" data-name="Checkbox - Unchecked" d="M16,18H2a2,2,0,0,1-2-2V2A2,2,0,0,1,2,0H16a2,2,0,0,1,2,2V16A2,2,0,0,1,16,18ZM2,2V16H16V2Z" fill="#fff"/>
        </g>
      </g>
      <g id="Group_2197" data-name="Group 2197" transform="translate(2015 -1244)">
        <text id="Enable_Alert" data-name="Enable Alert" transform="translate(5340 2859)" fill="#fff" font-size="14" font-family="Lato-Regular, Lato"><tspan x="0" y="0">ENABLE ALERT</tspan></text>
        <text id="play_sound" data-name="play sound" transform="translate(5340 2902)" fill="#fff" font-size="14" font-family="Lato-Regular, Lato"><tspan x="0" y="0">PLAY SOUND</tspan></text>
        <g id="Input_Switch_Element_Switch" data-name="Input / Switch / Element / Switch" transform="translate(5339 2946)">
          <path id="Track" d="M7,0H27a7,7,0,0,1,0,14H7A7,7,0,0,1,7,0Z" transform="translate(0 3)" fill="#15b50f" opacity="0.6"/>
          <g transform="matrix(1, 0, 0, 1, -24, -143)" filter="url(#Knob)">
            <circle id="Knob-2" data-name="Knob" cx="10" cy="10" r="10" transform="translate(41 143)" fill="#15b50f"/>
          </g>
        </g>
      </g>
      <g id="Input_Select_Standard-2" data-name="Input / Select / Standard" transform="translate(7592 1694)">
        <g id="Input_Text_Field_Standard_End_Icon-2" data-name="Input / Text Field / Standard / End Icon">
          <g id="content-3" data-name="content">
            <line id="Indicator-2" data-name="Indicator" x2="159.5" transform="translate(0.5 28)" fill="none" stroke="#0f73b5" stroke-linecap="square" stroke-width="2"/>
            <g id="content-4" data-name="content">
              <g id="container-2" data-name="container" transform="translate(0 -20)">
                <g id="Trailing_icon-2" data-name="Trailing icon" transform="translate(136 20)">
                  <rect id="Boundary-2" data-name="Boundary" width="24" height="24" fill="none"/>
                </g>
                <text id="Value-2" data-name="Value" transform="translate(0 23)" fill="#fff" font-size="14" font-family="Lato-Regular, Lato" letter-spacing="0em"><tspan x="0" y="14">Hughe Bowman</tspan></text>
              </g>
            </g>
          </g>
        </g>
      </g>
      <g id="Button_Contained_Icon_L_Primary_S" data-name="Button / Contained / Icon L / Primary / S" transform="translate(7960 1692)">
        <g id="Container-3" data-name="Container" transform="translate(29)">
          <g id="BKG" transform="translate(-33)">
            <g id="Surfaces_Paper_Variant_Round" data-name="Surfaces / Paper / Variant / Round" transform="translate(4)">
              <rect id="Rectangle" width="84" height="30" rx="4" fill="#15b50f"/>
            </g>
          </g>
          <g id="Label" transform="translate(-421 -749)">
            <rect id="Line_Height" data-name="Line Height" width="24" height="22" transform="translate(402 753)" fill="#fff" opacity="0"/>
            <text id="Label-2" data-name="Label" transform="translate(428 769)" fill="#fff" font-size="13" font-family="Roboto-Medium, Roboto" font-weight="500" letter-spacing="0.001em"><tspan x="0" y="0">APPLY</tspan></text>
          </g>
          <g id="add" transform="translate(-19 6)">
            <rect id="Boundary-3" data-name="Boundary" width="18" height="18" fill="none"/>
            <path id="_Color" data-name=" ↳Color" d="M12,6.857H6.857V12H5.143V6.857H0V5.143H5.143V0H6.857V5.143H12Z" transform="translate(3 3)" fill="#fff"/>
          </g>
        </g>
      </g>
    </g>
    <g id="Data_Display_Chip_Outlined_Success_M" data-name="Data Display / Chip / Outlined / Success / M" transform="translate(7355 1637)">
      <g id="Container-4" data-name="Container" transform="translate(1 -10.793)">
        <rect id="Fill" width="191" height="32" rx="16" transform="translate(-1 10.793)" fill="#2196f3" opacity="0"/>
        <g id="Surfaces_Paper_Variant_Round-2" data-name="Surfaces / Paper / Variant / Round" transform="translate(-1 10.793)">
          <g id="Rectangle-2" data-name="Rectangle" fill="none" stroke="#15b50f" stroke-miterlimit="10" stroke-width="1">
            <rect width="191" height="32" rx="16" stroke="none"/>
            <rect x="0.5" y="0.5" width="190" height="31" rx="15.5" fill="none"/>
          </g>
        </g>
      </g>
      <g id="Contents" transform="translate(0 13)">
        <g id="Close_Icon" data-name="Close Icon" transform="translate(165 -8)" opacity="0.7">
          <rect id="Boundary-4" data-name="Boundary" width="22" height="22" fill="none"/>
          <path id="_Color-2" data-name=" ↳Color" d="M9,18A9,9,0,0,1,2.634,2.634,9,9,0,0,1,15.367,15.367,8.943,8.943,0,0,1,9,18Zm0-7.731H9l3.23,3.23L13.5,12.231,10.269,9,13.5,5.769,12.231,4.5,9,7.731,5.769,4.5,4.5,5.769,7.731,9,4.5,12.231,5.769,13.5,9,10.27Z" transform="translate(2 2)" fill="#15b50f"/>
        </g>
        <g id="Typography" transform="translate(6)">
          <text id="Label-3" data-name="Label" transform="translate(28 8)" fill="#4caf50" font-size="13" font-family="Roboto-Regular, Roboto" letter-spacing="0em"><tspan x="0" y="0">Hugh Bowman / Winx</tspan></text>
        </g>
        <g id="user_outlined_" data-name="user (outlined)" transform="translate(4 -9)">
          <rect id="Boundary-5" data-name="Boundary" width="24" height="24" fill="none"/>
          <g id="account_circle-24px">
            <path id="Path_384" data-name="Path 384" d="M0,0H24V24H0Z" fill="none"/>
            <path id="Path_385" data-name="Path 385" d="M12,2A10,10,0,1,0,22,12,10,10,0,0,0,12,2Zm0,3A3,3,0,1,1,9,8,3,3,0,0,1,12,5Zm0,14.2a7.2,7.2,0,0,1-6-3.22c.03-1.99,4-3.08,6-3.08s5.97,1.09,6,3.08A7.2,7.2,0,0,1,12,19.2Z" fill="#15b50f"/>
          </g>
        </g>
      </g>
    </g>
    <g id="Data_Display_Chip_Outlined_Success_M-2" data-name="Data Display / Chip / Outlined / Success / M" transform="translate(7554 1637)">
      <g id="Container-5" data-name="Container" transform="translate(1 -10.793)">
        <rect id="Fill-2" data-name="Fill" width="191" height="32" rx="16" transform="translate(-1 10.793)" fill="#2196f3" opacity="0"/>
        <g id="Surfaces_Paper_Variant_Round-3" data-name="Surfaces / Paper / Variant / Round" transform="translate(-1 10.793)">
          <g id="Rectangle-3" data-name="Rectangle" fill="none" stroke="#15b50f" stroke-miterlimit="10" stroke-width="1">
            <rect width="191" height="32" rx="16" stroke="none"/>
            <rect x="0.5" y="0.5" width="190" height="31" rx="15.5" fill="none"/>
          </g>
        </g>
      </g>
      <g id="Contents-2" data-name="Contents" transform="translate(0 13)">
        <g id="Close_Icon-2" data-name="Close Icon" transform="translate(165 -8)" opacity="0.7">
          <rect id="Boundary-6" data-name="Boundary" width="22" height="22" fill="none"/>
          <path id="_Color-3" data-name=" ↳Color" d="M9,18A9,9,0,0,1,2.634,2.634,9,9,0,0,1,15.367,15.367,8.943,8.943,0,0,1,9,18Zm0-7.731H9l3.23,3.23L13.5,12.231,10.269,9,13.5,5.769,12.231,4.5,9,7.731,5.769,4.5,4.5,5.769,7.731,9,4.5,12.231,5.769,13.5,9,10.27Z" transform="translate(2 2)" fill="#15b50f"/>
        </g>
        <g id="Typography-2" data-name="Typography" transform="translate(6)">
          <text id="Label-4" data-name="Label" transform="translate(28 8)" fill="#4caf50" font-size="13" font-family="Roboto-Regular, Roboto" letter-spacing="0em"><tspan x="0" y="0">Hugh Bowman / Winx</tspan></text>
        </g>
        <g id="user_outlined_2" data-name="user (outlined)" transform="translate(4 -9)">
          <rect id="Boundary-7" data-name="Boundary" width="24" height="24" fill="none"/>
          <g id="account_circle-24px-2" data-name="account_circle-24px">
            <path id="Path_384-2" data-name="Path 384" d="M0,0H24V24H0Z" fill="none"/>
            <path id="Path_385-2" data-name="Path 385" d="M12,2A10,10,0,1,0,22,12,10,10,0,0,0,12,2Zm0,3A3,3,0,1,1,9,8,3,3,0,0,1,12,5Zm0,14.2a7.2,7.2,0,0,1-6-3.22c.03-1.99,4-3.08,6-3.08s5.97,1.09,6,3.08A7.2,7.2,0,0,1,12,19.2Z" fill="#15b50f"/>
          </g>
        </g>
      </g>
    </g>
    <g id="Data_Display_Chip_Outlined_Success_M-3" data-name="Data Display / Chip / Outlined / Success / M" transform="translate(7753 1637)">
      <g id="Container-6" data-name="Container" transform="translate(1 -10.793)">
        <rect id="Fill-3" data-name="Fill" width="191" height="32" rx="16" transform="translate(-1 10.793)" fill="#2196f3" opacity="0"/>
        <g id="Surfaces_Paper_Variant_Round-4" data-name="Surfaces / Paper / Variant / Round" transform="translate(-1 10.793)">
          <g id="Rectangle-4" data-name="Rectangle" fill="none" stroke="#15b50f" stroke-miterlimit="10" stroke-width="1">
            <rect width="191" height="32" rx="16" stroke="none"/>
            <rect x="0.5" y="0.5" width="190" height="31" rx="15.5" fill="none"/>
          </g>
        </g>
      </g>
      <g id="Contents-3" data-name="Contents" transform="translate(0 13)">
        <g id="Close_Icon-3" data-name="Close Icon" transform="translate(165 -8)" opacity="0.7">
          <rect id="Boundary-8" data-name="Boundary" width="22" height="22" fill="none"/>
          <path id="_Color-4" data-name=" ↳Color" d="M9,18A9,9,0,0,1,2.634,2.634,9,9,0,0,1,15.367,15.367,8.943,8.943,0,0,1,9,18Zm0-7.731H9l3.23,3.23L13.5,12.231,10.269,9,13.5,5.769,12.231,4.5,9,7.731,5.769,4.5,4.5,5.769,7.731,9,4.5,12.231,5.769,13.5,9,10.27Z" transform="translate(2 2)" fill="#15b50f"/>
        </g>
        <g id="Typography-3" data-name="Typography" transform="translate(6)">
          <text id="Label-5" data-name="Label" transform="translate(28 8)" fill="#4caf50" font-size="13" font-family="Roboto-Regular, Roboto" letter-spacing="0em"><tspan x="0" y="0">Hugh Bowman / Winx</tspan></text>
        </g>
        <g id="user_outlined_3" data-name="user (outlined)" transform="translate(4 -9)">
          <rect id="Boundary-9" data-name="Boundary" width="24" height="24" fill="none"/>
          <g id="account_circle-24px-3" data-name="account_circle-24px">
            <path id="Path_384-3" data-name="Path 384" d="M0,0H24V24H0Z" fill="none"/>
            <path id="Path_385-3" data-name="Path 385" d="M12,2A10,10,0,1,0,22,12,10,10,0,0,0,12,2Zm0,3A3,3,0,1,1,9,8,3,3,0,0,1,12,5Zm0,14.2a7.2,7.2,0,0,1-6-3.22c.03-1.99,4-3.08,6-3.08s5.97,1.09,6,3.08A7.2,7.2,0,0,1,12,19.2Z" fill="#15b50f"/>
          </g>
        </g>
      </g>
    </g>
    <g id="Mask_Group_17" data-name="Mask Group 17" clip-path="url(#clip-path)">
      <g id="Data_Display_Chip_Outlined_Success_M-4" data-name="Data Display / Chip / Outlined / Success / M" transform="translate(7952 1636)">
        <g id="Container-7" data-name="Container" transform="translate(1 -10.793)">
          <rect id="Fill-4" data-name="Fill" width="191" height="32" rx="16" transform="translate(-1 10.793)" fill="#2196f3" opacity="0"/>
          <g id="Surfaces_Paper_Variant_Round-5" data-name="Surfaces / Paper / Variant / Round" transform="translate(-1 10.793)">
            <g id="Rectangle-5" data-name="Rectangle" fill="none" stroke="#15b50f" stroke-miterlimit="10" stroke-width="1">
              <rect width="191" height="32" rx="16" stroke="none"/>
              <rect x="0.5" y="0.5" width="190" height="31" rx="15.5" fill="none"/>
            </g>
          </g>
        </g>
        <g id="Contents-4" data-name="Contents" transform="translate(0 13)">
          <g id="Close_Icon-4" data-name="Close Icon" transform="translate(165 -8)" opacity="0.7">
            <rect id="Boundary-10" data-name="Boundary" width="22" height="22" fill="none"/>
            <path id="_Color-5" data-name=" ↳Color" d="M9,18A9,9,0,0,1,2.634,2.634,9,9,0,0,1,15.367,15.367,8.943,8.943,0,0,1,9,18Zm0-7.731H9l3.23,3.23L13.5,12.231,10.269,9,13.5,5.769,12.231,4.5,9,7.731,5.769,4.5,4.5,5.769,7.731,9,4.5,12.231,5.769,13.5,9,10.27Z" transform="translate(2 2)" fill="#15b50f"/>
          </g>
          <g id="Typography-4" data-name="Typography" transform="translate(6)">
            <text id="Label-6" data-name="Label" transform="translate(28 8)" fill="#4caf50" font-size="13" font-family="Roboto-Regular, Roboto" letter-spacing="0em"><tspan x="0" y="0">Hugh Bowman / Winx</tspan></text>
          </g>
          <g id="user_outlined_4" data-name="user (outlined)" transform="translate(4 -9)">
            <rect id="Boundary-11" data-name="Boundary" width="24" height="24" fill="none"/>
            <g id="account_circle-24px-4" data-name="account_circle-24px">
              <path id="Path_384-4" data-name="Path 384" d="M0,0H24V24H0Z" fill="none"/>
              <path id="Path_385-4" data-name="Path 385" d="M12,2A10,10,0,1,0,22,12,10,10,0,0,0,12,2Zm0,3A3,3,0,1,1,9,8,3,3,0,0,1,12,5Zm0,14.2a7.2,7.2,0,0,1-6-3.22c.03-1.99,4-3.08,6-3.08s5.97,1.09,6,3.08A7.2,7.2,0,0,1,12,19.2Z" fill="#15b50f"/>
            </g>
          </g>
        </g>
      </g>
    </g>
    <rect id="Rectangle_1089" data-name="Rectangle 1089" width="689" height="4" rx="2" transform="translate(7355 1677)" fill="#fff" opacity="0.38"/>
    <rect id="Rectangle_1090" data-name="Rectangle 1090" width="550" height="4" rx="2" transform="translate(7355 1677)" fill="#fff"/>
  </g>
</svg>
