<svg xmlns="http://www.w3.org/2000/svg" xmlns:xlink="http://www.w3.org/1999/xlink" width="1130" height="525" viewBox="0 0 1130 525">
  <defs>
    <clipPath id="clip-path">
      <rect width="149.577" height="2" fill="none"/>
    </clipPath>
  </defs>
  <g id="Group_2130" data-name="Group 2130" transform="translate(-529 -470)">
    <rect id="Rectangle_1" data-name="Rectangle 1" width="1130" height="525" rx="8" transform="translate(529 470)" fill="#103c55"/>
    <g id="Group_1" data-name="Group 1" transform="translate(-126 400)">
      <text id="Subtitle_1" data-name="Subtitle 1" transform="translate(704 107)" fill="#fff" font-size="12" font-family="Lato-Bold, Lato" font-weight="700" letter-spacing="0.05em"><tspan x="0" y="0">FILTER BY</tspan></text>
      <path id="wallet" d="M19.105,16.333v.889A1.784,1.784,0,0,1,17.316,19H4.789A1.783,1.783,0,0,1,3,17.222V4.778A1.784,1.784,0,0,1,4.789,3H17.316a1.784,1.784,0,0,1,1.789,1.778v.889H11.053A1.783,1.783,0,0,0,9.263,7.444v7.111a1.784,1.784,0,0,0,1.789,1.778m0-1.778H20V7.444H11.053m3.579,4.889A1.333,1.333,0,1,1,15.974,11,1.338,1.338,0,0,1,14.632,12.333Z" transform="translate(676 91)" fill="#fff"/>
    </g>
    <g id="Group_2062" data-name="Group 2062" transform="translate(337 -339)">
      <g id="Group_1993" data-name="Group 1993" transform="translate(-29 704)">
        <text id="Thoroughbred" transform="translate(1077 141)" fill="#fff" font-size="8" font-family="Lato-Regular, Lato" letter-spacing="0.1em"><tspan x="0" y="0">THOROUGHBRED</tspan></text>
        <g id="Input_Checkbox_Element_Checkbox_S" data-name="Input / Checkbox / Element / Checkbox S" transform="translate(1054 130)">
          <path id="Checkbox_-_Checked" data-name="Checkbox - Checked" d="M13.333,15H1.667A1.669,1.669,0,0,1,0,13.333V1.667A1.669,1.669,0,0,1,1.667,0H13.333A1.669,1.669,0,0,1,15,1.667V13.333A1.669,1.669,0,0,1,13.333,15ZM2.841,6.325h0L1.667,7.5l4.166,4.167,7.5-7.5L12.158,2.984,5.833,9.309,2.841,6.325Z" transform="translate(0 0)" fill="#0f73b5"/>
        </g>
      </g>
      <g id="Group_1994" data-name="Group 1994" transform="translate(3 609)">
        <text id="Greyhounds" transform="translate(1160 236)" fill="#fff" font-size="8" font-family="Lato-Regular, Lato" letter-spacing="0.1em"><tspan x="0" y="0">GREYHOUNDS</tspan></text>
        <g id="Input_Checkbox_Element_Checkbox_S-2" data-name="Input / Checkbox / Element / Checkbox S" transform="translate(1137 225)">
          <path id="Checkbox_-_Unchecked" data-name="Checkbox - Unchecked" d="M13.333,15H1.666A1.668,1.668,0,0,1,0,13.333V1.666A1.668,1.668,0,0,1,1.666,0H13.333A1.668,1.668,0,0,1,15,1.666V13.333A1.668,1.668,0,0,1,13.333,15ZM1.666,1.666V13.333H13.333V1.666Z" fill="#fff"/>
        </g>
      </g>
      <g id="Group_2061" data-name="Group 2061" transform="translate(-166 609)">
        <text id="all" transform="translate(1160 236)" fill="#fff" font-size="8" font-family="Lato-Regular, Lato" letter-spacing="0.1em"><tspan x="0" y="0">ALL</tspan></text>
        <g id="Input_Checkbox_Element_Checkbox_S-3" data-name="Input / Checkbox / Element / Checkbox S" transform="translate(1137 225)">
          <path id="Checkbox_-_Unchecked-2" data-name="Checkbox - Unchecked" d="M13.333,15H1.666A1.668,1.668,0,0,1,0,13.333V1.666A1.668,1.668,0,0,1,1.666,0H13.333A1.668,1.668,0,0,1,15,1.666V13.333A1.668,1.668,0,0,1,13.333,15ZM1.666,1.666V13.333H13.333V1.666Z" fill="#fff"/>
        </g>
      </g>
      <g id="Group_1995" data-name="Group 1995" transform="translate(105 609)">
        <text id="Harness" transform="translate(1160 236)" fill="#fff" font-size="8" font-family="Lato-Regular, Lato" letter-spacing="0.1em"><tspan x="0" y="0">HARNESS</tspan></text>
        <g id="Input_Checkbox_Element_Checkbox_S-4" data-name="Input / Checkbox / Element / Checkbox S" transform="translate(1137 225)">
          <path id="Checkbox_-_Unchecked-3" data-name="Checkbox - Unchecked" d="M13.333,15H1.666A1.668,1.668,0,0,1,0,13.333V1.666A1.668,1.668,0,0,1,1.666,0H13.333A1.668,1.668,0,0,1,15,1.666V13.333A1.668,1.668,0,0,1,13.333,15ZM1.666,1.666V13.333H13.333V1.666Z" fill="#fff"/>
        </g>
      </g>
    </g>
    <g id="Group_2064" data-name="Group 2064" transform="translate(445.062 261)">
      <text id="_28" data-name="28" transform="translate(115.939 707)" fill="#fff" font-size="12" font-family="Roboto-Regular, Roboto" letter-spacing="0em"><tspan x="-6.739" y="0">28</tspan></text>
      <text id="_21" data-name="21" transform="translate(115.939 675)" fill="#fff" font-size="12" font-family="Roboto-Regular, Roboto" letter-spacing="0em"><tspan x="-6.739" y="0">21</tspan></text>
      <text id="_14" data-name="14" transform="translate(115.939 643)" fill="#fff" font-size="12" font-family="Roboto-Regular, Roboto" letter-spacing="0em"><tspan x="-6.739" y="0">14</tspan></text>
      <text id="_7" data-name="7" transform="translate(115.939 611)" fill="#fff" font-size="12" font-family="Roboto-Regular, Roboto" letter-spacing="0em"><tspan x="-3.369" y="0">7</tspan></text>
      <text id="Su" transform="translate(115.939 547)" fill="rgba(255,255,255,0.6)" font-size="12" font-family="Roboto-Regular, Roboto" letter-spacing="0em"><tspan x="-6.87" y="0">Su</tspan></text>
      <text id="_29" data-name="29" transform="translate(174.939 707)" fill="#fff" font-size="12" font-family="Roboto-Regular, Roboto" letter-spacing="0em"><tspan x="-6.739" y="0">29</tspan></text>
      <text id="_22" data-name="22" transform="translate(174.939 675)" fill="#fff" font-size="12" font-family="Roboto-Regular, Roboto" letter-spacing="0em"><tspan x="-6.739" y="0">22</tspan></text>
      <text id="_15" data-name="15" transform="translate(174.939 643)" fill="#fff" font-size="12" font-family="Roboto-Regular, Roboto" letter-spacing="0em"><tspan x="-6.739" y="0">15</tspan></text>
      <text id="_8" data-name="8" transform="translate(174.939 611)" fill="#fff" font-size="12" font-family="Roboto-Regular, Roboto" letter-spacing="0em"><tspan x="-3.369" y="0">8</tspan></text>
      <text id="_1" data-name="1" transform="translate(174.939 579)" fill="#fff" font-size="12" font-family="Roboto-Regular, Roboto" letter-spacing="0em"><tspan x="-3.369" y="0">1</tspan></text>
      <text id="Mo" transform="translate(174.939 547)" fill="rgba(255,255,255,0.6)" font-size="12" font-family="Roboto-Regular, Roboto" letter-spacing="0em"><tspan x="-8.663" y="0">Mo</tspan></text>
      <text id="_30" data-name="30" transform="translate(232.939 707)" fill="#fff" font-size="12" font-family="Roboto-Regular, Roboto" letter-spacing="0em"><tspan x="-6.739" y="0">30</tspan></text>
      <text id="_23" data-name="23" transform="translate(232.939 675)" fill="#fff" font-size="12" font-family="Roboto-Regular, Roboto" letter-spacing="0em"><tspan x="-6.739" y="0">23</tspan></text>
      <text id="_16" data-name="16" transform="translate(232.939 643)" fill="#fff" font-size="12" font-family="Roboto-Regular, Roboto" letter-spacing="0em"><tspan x="-6.739" y="0">16</tspan></text>
      <text id="_9" data-name="9" transform="translate(232.939 611)" fill="#fff" font-size="12" font-family="Roboto-Regular, Roboto" letter-spacing="0em"><tspan x="-3.369" y="0">9</tspan></text>
      <text id="_2" data-name="2" transform="translate(232.939 579)" fill="#fff" font-size="12" font-family="Roboto-Regular, Roboto" letter-spacing="0em"><tspan x="-3.369" y="0">2</tspan></text>
      <text id="Tu" transform="translate(232.939 547)" fill="rgba(255,255,255,0.6)" font-size="12" font-family="Roboto-Regular, Roboto" letter-spacing="0em"><tspan x="-6.612" y="0">Tu</tspan></text>
      <text id="_31" data-name="31" transform="translate(290.939 707)" fill="#fff" font-size="12" font-family="Roboto-Regular, Roboto" letter-spacing="0em"><tspan x="-6.739" y="0">31</tspan></text>
      <rect id="Rectangle_915" data-name="Rectangle 915" width="169" height="28" transform="translate(290.939 656)" fill="rgba(15,115,181,0.38)"/>
      <circle id="Ellipse" cx="14" cy="14" r="14" transform="translate(277 656)" fill="#0f73b5"/>
      <text id="_24" data-name="24" transform="translate(290.939 675)" fill="#fff" font-size="12" font-family="Roboto-Regular, Roboto" letter-spacing="0em"><tspan x="-6.739" y="0">24</tspan></text>
      <circle id="Ellipse-2" data-name="Ellipse" cx="14" cy="14" r="14" transform="translate(443 656)" fill="#0f73b5"/>
      <text id="_17" data-name="17" transform="translate(290.939 643)" fill="#fff" font-size="12" font-family="Roboto-Regular, Roboto" letter-spacing="0em"><tspan x="-6.739" y="0">17</tspan></text>
      <text id="_10" data-name="10" transform="translate(290.939 611)" fill="#fff" font-size="12" font-family="Roboto-Regular, Roboto" letter-spacing="0em"><tspan x="-6.739" y="0">10</tspan></text>
      <text id="_3" data-name="3" transform="translate(290.939 579)" fill="#fff" font-size="12" font-family="Roboto-Regular, Roboto" letter-spacing="0em"><tspan x="-3.369" y="0">3</tspan></text>
      <text id="We" transform="translate(290.939 547)" fill="rgba(255,255,255,0.6)" font-size="12" font-family="Roboto-Regular, Roboto" letter-spacing="0em"><tspan x="-8.414" y="0">We</tspan></text>
      <text id="_25" data-name="25" transform="translate(347.939 675)" fill="#fff" font-size="12" font-family="Roboto-Regular, Roboto" letter-spacing="0em"><tspan x="-6.739" y="0">25</tspan></text>
      <text id="_18" data-name="18" transform="translate(347.939 643)" fill="#fff" font-size="12" font-family="Roboto-Regular, Roboto" letter-spacing="0em"><tspan x="-6.739" y="0">18</tspan></text>
      <text id="_11" data-name="11" transform="translate(347.939 611)" fill="#fff" font-size="12" font-family="Roboto-Regular, Roboto" letter-spacing="0em"><tspan x="-6.739" y="0">11</tspan></text>
      <text id="_4" data-name="4" transform="translate(347.939 579)" fill="#fff" font-size="12" font-family="Roboto-Regular, Roboto" letter-spacing="0em"><tspan x="-3.369" y="0">4</tspan></text>
      <text id="Th" transform="translate(347.939 547)" fill="rgba(255,255,255,0.6)" font-size="12" font-family="Roboto-Regular, Roboto" letter-spacing="0em"><tspan x="-6.887" y="0">Th</tspan></text>
      <text id="_26" data-name="26" transform="translate(400.939 675)" fill="#fff" font-size="12" font-family="Roboto-Regular, Roboto" letter-spacing="0em"><tspan x="-6.739" y="0">26</tspan></text>
      <text id="_19" data-name="19" transform="translate(400.939 643)" fill="#fff" font-size="12" font-family="Roboto-Regular, Roboto" letter-spacing="0em"><tspan x="-6.739" y="0">19</tspan></text>
      <text id="_12" data-name="12" transform="translate(400.939 611)" fill="#fff" font-size="12" font-family="Roboto-Regular, Roboto" letter-spacing="0em"><tspan x="-6.739" y="0">12</tspan></text>
      <text id="_5" data-name="5" transform="translate(400.939 579)" fill="#fff" font-size="12" font-family="Roboto-Regular, Roboto" letter-spacing="0em"><tspan x="-3.369" y="0">5</tspan></text>
      <text id="Fr" transform="translate(400.939 547)" fill="rgba(255,255,255,0.6)" font-size="12" font-family="Roboto-Regular, Roboto" letter-spacing="0em"><tspan x="-5.273" y="0">Fr</tspan></text>
      <text id="_20" data-name="20" transform="translate(456.939 643)" fill="#fff" font-size="12" font-family="Roboto-Regular, Roboto" letter-spacing="0em"><tspan x="-6.739" y="0">20</tspan></text>
      <text id="_13" data-name="13" transform="translate(456.939 611)" fill="#fff" font-size="12" font-family="Roboto-Regular, Roboto" letter-spacing="0em"><tspan x="-6.739" y="0">13</tspan></text>
      <text id="_6" data-name="6" transform="translate(456.939 579)" fill="#fff" font-size="12" font-family="Roboto-Regular, Roboto" letter-spacing="0em"><tspan x="-3.369" y="0">6</tspan></text>
      <text id="Sa" transform="translate(456.939 547)" fill="rgba(255,255,255,0.6)" font-size="12" font-family="Roboto-Regular, Roboto" letter-spacing="0em"><tspan x="-6.826" y="0">Sa</tspan></text>
      <g id="Box" transform="translate(-329.061 492)">
        <g id="Chevron_right" data-name="Chevron right" transform="translate(764 5)">
          <rect id="Boundary" width="24" height="24" fill="none"/>
          <path id="_Color" data-name=" ↳Color" d="M1.408,0,0,1.41,4.574,6,0,10.59,1.408,12,7.4,6Z" transform="translate(8.6 6)" fill="rgba(255,255,255,0.6)"/>
        </g>
        <g id="Chevron_left" data-name="Chevron left" transform="translate(732 5)">
          <rect id="Boundary-2" data-name="Boundary" width="24" height="24" fill="none"/>
          <path id="_Color-2" data-name=" ↳Color" d="M7.4,1.41,5.992,0,0,6l5.992,6L7.4,10.59,2.826,6Z" transform="translate(8 6)" fill="rgba(255,255,255,0.6)"/>
        </g>
      </g>
      <g id="Box-2" data-name="Box" transform="translate(-408.061 497)">
        <g id="arrow_drop_down" data-name="arrow drop down" transform="translate(726)">
          <rect id="Boundary-3" data-name="Boundary" width="24" height="24" fill="none"/>
          <path id="_Color-3" data-name=" ↳Color" d="M0,0,5,5l5-5Z" transform="translate(7 11)" fill="#fff"/>
        </g>
        <text id="_2021" data-name="2021" transform="translate(703 18)" fill="#fff" font-size="12" font-family="Roboto-Medium, Roboto" font-weight="500" letter-spacing="0.1em"><tspan x="-15.441" y="0">2021</tspan></text>
        <text id="Date_Range:_November" data-name="Date Range: November" transform="translate(516 18)" fill="#fff" font-size="12" font-family="Roboto-Medium, Roboto" font-weight="500" letter-spacing="0.1em"><tspan x="0" y="0">DATE RANGE: NOVEMBER</tspan></text>
      </g>
      <text id="_27" data-name="27" transform="translate(456.939 675)" fill="#fff" font-size="12" font-family="Roboto-Regular, Roboto" letter-spacing="0em"><tspan x="-6.739" y="0">27</tspan></text>
    </g>
    <g id="Group_2125" data-name="Group 2125" transform="translate(8)">
      <g id="Group_2008" data-name="Group 2008" transform="translate(-592 340)">
        <text id="australia" transform="translate(1160 236)" fill="#fff" font-size="8" font-family="Lato-Regular, Lato" letter-spacing="0.1em"><tspan x="0" y="0">AUSTRALIA</tspan></text>
        <g id="Input_Checkbox_Element_Checkbox_S-5" data-name="Input / Checkbox / Element / Checkbox S" transform="translate(1137 225)">
          <path id="Checkbox_-_Unchecked-4" data-name="Checkbox - Unchecked" d="M13.333,15H1.666A1.668,1.668,0,0,1,0,13.333V1.666A1.668,1.668,0,0,1,1.666,0H13.333A1.668,1.668,0,0,1,15,1.666V13.333A1.668,1.668,0,0,1,13.333,15ZM1.666,1.666V13.333H13.333V1.666Z" fill="#fff"/>
        </g>
      </g>
      <g id="Group_2009" data-name="Group 2009" transform="translate(-592 371)">
        <text id="New_Zealand" data-name="New Zealand" transform="translate(1160 236)" fill="#fff" font-size="8" font-family="Lato-Regular, Lato" letter-spacing="0.1em"><tspan x="0" y="0">NEW ZEALAND</tspan></text>
        <g id="Input_Checkbox_Element_Checkbox_S-6" data-name="Input / Checkbox / Element / Checkbox S" transform="translate(1137 225)">
          <path id="Checkbox_-_Unchecked-5" data-name="Checkbox - Unchecked" d="M13.333,15H1.666A1.668,1.668,0,0,1,0,13.333V1.666A1.668,1.668,0,0,1,1.666,0H13.333A1.668,1.668,0,0,1,15,1.666V13.333A1.668,1.668,0,0,1,13.333,15ZM1.666,1.666V13.333H13.333V1.666Z" fill="#fff"/>
        </g>
      </g>
      <g id="Group_2010" data-name="Group 2010" transform="translate(-592 402)">
        <text id="usa_ca" data-name="usa / ca" transform="translate(1160 236)" fill="#fff" font-size="8" font-family="Lato-Regular, Lato" letter-spacing="0.1em"><tspan x="0" y="0">USA / CA</tspan></text>
        <g id="Input_Checkbox_Element_Checkbox_S-7" data-name="Input / Checkbox / Element / Checkbox S" transform="translate(1137 225)">
          <path id="Checkbox_-_Unchecked-6" data-name="Checkbox - Unchecked" d="M13.333,15H1.666A1.668,1.668,0,0,1,0,13.333V1.666A1.668,1.668,0,0,1,1.666,0H13.333A1.668,1.668,0,0,1,15,1.666V13.333A1.668,1.668,0,0,1,13.333,15ZM1.666,1.666V13.333H13.333V1.666Z" fill="#fff"/>
        </g>
      </g>
      <g id="Group_2011" data-name="Group 2011" transform="translate(-592 433)">
        <text id="japan" transform="translate(1160 236)" fill="#fff" font-size="8" font-family="Lato-Regular, Lato" letter-spacing="0.1em"><tspan x="0" y="0">JAPAN</tspan></text>
        <g id="Input_Checkbox_Element_Checkbox_S-8" data-name="Input / Checkbox / Element / Checkbox S" transform="translate(1137 225)">
          <path id="Checkbox_-_Unchecked-7" data-name="Checkbox - Unchecked" d="M13.333,15H1.666A1.668,1.668,0,0,1,0,13.333V1.666A1.668,1.668,0,0,1,1.666,0H13.333A1.668,1.668,0,0,1,15,1.666V13.333A1.668,1.668,0,0,1,13.333,15ZM1.666,1.666V13.333H13.333V1.666Z" fill="#fff"/>
        </g>
      </g>
    </g>
    <g id="Group_2126" data-name="Group 2126" transform="translate(16)">
      <g id="Group_2012" data-name="Group 2012" transform="translate(-487 340)">
        <text id="united_kingdom" data-name="united kingdom" transform="translate(1160 236)" fill="#fff" font-size="8" font-family="Lato-Regular, Lato" letter-spacing="0.1em"><tspan x="0" y="0">UNITED KINGDOM</tspan></text>
        <g id="Input_Checkbox_Element_Checkbox_S-9" data-name="Input / Checkbox / Element / Checkbox S" transform="translate(1137 225)">
          <path id="Checkbox_-_Unchecked-8" data-name="Checkbox - Unchecked" d="M13.333,15H1.666A1.668,1.668,0,0,1,0,13.333V1.666A1.668,1.668,0,0,1,1.666,0H13.333A1.668,1.668,0,0,1,15,1.666V13.333A1.668,1.668,0,0,1,13.333,15ZM1.666,1.666V13.333H13.333V1.666Z" fill="#fff"/>
        </g>
      </g>
      <g id="Group_2013" data-name="Group 2013" transform="translate(-487 371)">
        <text id="ireland" transform="translate(1160 236)" fill="#fff" font-size="8" font-family="Lato-Regular, Lato" letter-spacing="0.1em"><tspan x="0" y="0">IRELAND</tspan></text>
        <g id="Input_Checkbox_Element_Checkbox_S-10" data-name="Input / Checkbox / Element / Checkbox S" transform="translate(1137 225)">
          <path id="Checkbox_-_Unchecked-9" data-name="Checkbox - Unchecked" d="M13.333,15H1.666A1.668,1.668,0,0,1,0,13.333V1.666A1.668,1.668,0,0,1,1.666,0H13.333A1.668,1.668,0,0,1,15,1.666V13.333A1.668,1.668,0,0,1,13.333,15ZM1.666,1.666V13.333H13.333V1.666Z" fill="#fff"/>
        </g>
      </g>
      <g id="Group_2014" data-name="Group 2014" transform="translate(-487 402)">
        <text id="france" transform="translate(1160 236)" fill="#fff" font-size="8" font-family="Lato-Regular, Lato" letter-spacing="0.1em"><tspan x="0" y="0">FRANCE</tspan></text>
        <g id="Input_Checkbox_Element_Checkbox_S-11" data-name="Input / Checkbox / Element / Checkbox S" transform="translate(1137 225)">
          <path id="Checkbox_-_Unchecked-10" data-name="Checkbox - Unchecked" d="M13.333,15H1.666A1.668,1.668,0,0,1,0,13.333V1.666A1.668,1.668,0,0,1,1.666,0H13.333A1.668,1.668,0,0,1,15,1.666V13.333A1.668,1.668,0,0,1,13.333,15ZM1.666,1.666V13.333H13.333V1.666Z" fill="#fff"/>
        </g>
      </g>
      <g id="Group_2015" data-name="Group 2015" transform="translate(-487 433)">
        <text id="Singapore" transform="translate(1160 236)" fill="#fff" font-size="8" font-family="Lato-Regular, Lato" letter-spacing="0.1em"><tspan x="0" y="0">SINGAPORE</tspan></text>
        <g id="Input_Checkbox_Element_Checkbox_S-12" data-name="Input / Checkbox / Element / Checkbox S" transform="translate(1137 225)">
          <path id="Checkbox_-_Unchecked-11" data-name="Checkbox - Unchecked" d="M13.333,15H1.666A1.668,1.668,0,0,1,0,13.333V1.666A1.668,1.668,0,0,1,1.666,0H13.333A1.668,1.668,0,0,1,15,1.666V13.333A1.668,1.668,0,0,1,13.333,15ZM1.666,1.666V13.333H13.333V1.666Z" fill="#fff"/>
        </g>
      </g>
    </g>
    <g id="Group_2127" data-name="Group 2127" transform="translate(25)">
      <g id="Group_2016" data-name="Group 2016" transform="translate(-366 340)">
        <text id="south_africa" data-name="south africa" transform="translate(1160 236)" fill="#fff" font-size="8" font-family="Lato-Regular, Lato" letter-spacing="0.1em"><tspan x="0" y="0">SOUTH AFRICA</tspan></text>
        <g id="Input_Checkbox_Element_Checkbox_S-13" data-name="Input / Checkbox / Element / Checkbox S" transform="translate(1137 225)">
          <path id="Checkbox_-_Unchecked-12" data-name="Checkbox - Unchecked" d="M13.333,15H1.666A1.668,1.668,0,0,1,0,13.333V1.666A1.668,1.668,0,0,1,1.666,0H13.333A1.668,1.668,0,0,1,15,1.666V13.333A1.668,1.668,0,0,1,13.333,15ZM1.666,1.666V13.333H13.333V1.666Z" fill="#fff"/>
        </g>
      </g>
      <g id="Group_2017" data-name="Group 2017" transform="translate(-366 371)">
        <text id="hong_kong" data-name="hong kong" transform="translate(1160 236)" fill="#fff" font-size="8" font-family="Lato-Regular, Lato" letter-spacing="0.1em"><tspan x="0" y="0">HONG KONG</tspan></text>
        <g id="Input_Checkbox_Element_Checkbox_S-14" data-name="Input / Checkbox / Element / Checkbox S" transform="translate(1137 225)">
          <path id="Checkbox_-_Unchecked-13" data-name="Checkbox - Unchecked" d="M13.333,15H1.666A1.668,1.668,0,0,1,0,13.333V1.666A1.668,1.668,0,0,1,1.666,0H13.333A1.668,1.668,0,0,1,15,1.666V13.333A1.668,1.668,0,0,1,13.333,15ZM1.666,1.666V13.333H13.333V1.666Z" fill="#fff"/>
        </g>
      </g>
      <g id="Group_2018" data-name="Group 2018" transform="translate(-366 402)">
        <text id="other_i.e._sweden_mexico_" data-name="other (i.e. sweden,
mexico)" transform="translate(1160 236)" fill="#fff" font-size="8" font-family="Lato-Regular, Lato" letter-spacing="0.1em"><tspan x="0" y="0">OTHER (I.E. SWEDEN,</tspan><tspan x="0" y="16">MEXICO)</tspan></text>
        <g id="Input_Checkbox_Element_Checkbox_S-15" data-name="Input / Checkbox / Element / Checkbox S" transform="translate(1137 225)">
          <path id="Checkbox_-_Unchecked-14" data-name="Checkbox - Unchecked" d="M13.333,15H1.666A1.668,1.668,0,0,1,0,13.333V1.666A1.668,1.668,0,0,1,1.666,0H13.333A1.668,1.668,0,0,1,15,1.666V13.333A1.668,1.668,0,0,1,13.333,15ZM1.666,1.666V13.333H13.333V1.666Z" fill="#fff"/>
        </g>
      </g>
    </g>
    <g id="Group_2019" data-name="Group 2019" transform="translate(-491 539)">
      <rect id="Rectangle_913" data-name="Rectangle 913" width="170" height="32" rx="4" transform="translate(1044 158)" fill="#0f73b5"/>
      <text id="states_region" data-name="states / region" transform="translate(1060 177)" fill="#fff" font-size="8" font-family="Lato-Regular, Lato" letter-spacing="0.1em"><tspan x="0" y="0">STATES / REGION</tspan></text>
      <path id="_Color-4" data-name=" ↳Color" d="M0,0,4,4,8,0Z" transform="translate(1198 172.5)" fill="#fff"/>
      <rect id="Rectangle_914" data-name="Rectangle 914" width="1" height="32" transform="translate(1189 158)" fill="#103c55"/>
    </g>
    <text id="Subtitle_1-2" data-name="Subtitle 1" transform="translate(553 546)" fill="#fff" font-size="12" font-family="Lato-Bold, Lato" font-weight="700" letter-spacing="0.05em"><tspan x="0" y="0">COUNTRIES</tspan></text>
    <g id="Group_2005" data-name="Group 2005" transform="translate(55.423 701)">
      <text id="benchmark_range" data-name="benchmark range" transform="translate(1077 141)" fill="#fff" font-size="8" font-family="Lato-Regular, Lato" letter-spacing="0.1em"><tspan x="0" y="0">BENCHMARK RANGE</tspan></text>
      <g id="Input_Checkbox_Element_Checkbox_S-16" data-name="Input / Checkbox / Element / Checkbox S" transform="translate(1054 130)">
        <path id="Checkbox_-_Checked-2" data-name="Checkbox - Checked" d="M13.333,15H1.667A1.669,1.669,0,0,1,0,13.333V1.667A1.669,1.669,0,0,1,1.667,0H13.333A1.669,1.669,0,0,1,15,1.667V13.333A1.669,1.669,0,0,1,13.333,15ZM2.841,6.325h0L1.667,7.5l4.166,4.167,7.5-7.5L12.158,2.984,5.833,9.309,2.841,6.325Z" transform="translate(0 0)" fill="#0f73b5"/>
      </g>
    </g>
    <g id="Group_2006" data-name="Group 2006" transform="translate(55.423 740)">
      <text id="odds_range" data-name="odds range" transform="translate(1077 141)" fill="#fff" font-size="8" font-family="Lato-Regular, Lato" letter-spacing="0.1em"><tspan x="0" y="0">ODDS RANGE</tspan></text>
      <g id="Input_Checkbox_Element_Checkbox_S-17" data-name="Input / Checkbox / Element / Checkbox S" transform="translate(1054 130)">
        <path id="Checkbox_-_Checked-3" data-name="Checkbox - Checked" d="M13.333,15H1.667A1.669,1.669,0,0,1,0,13.333V1.667A1.669,1.669,0,0,1,1.667,0H13.333A1.669,1.669,0,0,1,15,1.667V13.333A1.669,1.669,0,0,1,13.333,15ZM2.841,6.325h0L1.667,7.5l4.166,4.167,7.5-7.5L12.158,2.984,5.833,9.309,2.841,6.325Z" transform="translate(0 0)" fill="#0f73b5"/>
      </g>
    </g>
    <g id="Group_2004" data-name="Group 2004" transform="translate(-27.577 567)">
      <text id="Distance_range" data-name="Distance range" transform="translate(1160 236)" fill="#fff" font-size="8" font-family="Lato-Regular, Lato" letter-spacing="0.1em"><tspan x="0" y="0">DISTANCE RANGE</tspan></text>
      <g id="Input_Checkbox_Element_Checkbox_S-18" data-name="Input / Checkbox / Element / Checkbox S" transform="translate(1137 225)">
        <path id="Checkbox_-_Unchecked-15" data-name="Checkbox - Unchecked" d="M13.333,15H1.666A1.668,1.668,0,0,1,0,13.333V1.666A1.668,1.668,0,0,1,1.666,0H13.333A1.668,1.668,0,0,1,15,1.666V13.333A1.668,1.668,0,0,1,13.333,15ZM1.666,1.666V13.333H13.333V1.666Z" fill="#fff"/>
      </g>
    </g>
    <g id="Group_2007" data-name="Group 2007" transform="translate(-27.577 684)">
      <text id="time_series_range" data-name="time series range" transform="translate(1160 236)" fill="#fff" font-size="8" font-family="Lato-Regular, Lato" letter-spacing="0.1em"><tspan x="0" y="0">TIME SERIES RANGE</tspan></text>
      <g id="Input_Checkbox_Element_Checkbox_S-19" data-name="Input / Checkbox / Element / Checkbox S" transform="translate(1137 225)">
        <path id="Checkbox_-_Unchecked-16" data-name="Checkbox - Unchecked" d="M13.333,15H1.666A1.668,1.668,0,0,1,0,13.333V1.666A1.668,1.668,0,0,1,1.666,0H13.333A1.668,1.668,0,0,1,15,1.666V13.333A1.668,1.668,0,0,1,13.333,15ZM1.666,1.666V13.333H13.333V1.666Z" fill="#fff"/>
      </g>
    </g>
    <g id="Group_2129" data-name="Group 2129" transform="translate(169.577)">
      <g id="Input_Slider_Range_Secondary_S" data-name="Input / Slider / Range / Secondary / S" transform="translate(1315.423 794)">
        <path id="Track" d="M0,6H149.535" fill="none" stroke="#bdbdbd" stroke-linecap="round" stroke-width="2" opacity="0.38"/>
        <g id="Ticks" transform="translate(0 5)" opacity="0.38" clip-path="url(#clip-path)">
          <circle id="Tick" cx="1" cy="1" r="1"/>
          <g transform="translate(28)">
            <circle id="Tick-2" data-name="Tick" cx="1" cy="1" r="1"/>
          </g>
          <g transform="translate(56)">
            <circle id="Tick-3" data-name="Tick" cx="1" cy="1" r="1"/>
          </g>
          <g transform="translate(84)">
            <circle id="Tick-4" data-name="Tick" cx="1" cy="1" r="1"/>
          </g>
          <g transform="translate(112)">
            <circle id="Tick-5" data-name="Tick" cx="1" cy="1" r="1"/>
          </g>
          <g transform="translate(140)">
            <circle id="Tick-6" data-name="Tick" cx="1" cy="1" r="1"/>
          </g>
        </g>
        <path id="Fill" d="M0,6H84" transform="translate(30)" fill="none" stroke="#bdbdbd" stroke-linecap="round" stroke-width="2"/>
        <circle id="Tick-7" data-name="Tick" cx="1" cy="1" r="1" transform="translate(71 5)" fill="rgba(255,255,255,0.7)"/>
        <circle id="Knob" cx="6" cy="6" r="6" transform="translate(108)" fill="#bdbdbd"/>
        <circle id="Knob-2" data-name="Knob" cx="6" cy="6" r="6" transform="translate(24)" fill="#bdbdbd"/>
      </g>
      <g id="Input_Slider_Range_Secondary_S-2" data-name="Input / Slider / Range / Secondary / S" transform="translate(1315.423 911)">
        <path id="Track-2" data-name="Track" d="M0,6H149.535" fill="none" stroke="#bdbdbd" stroke-linecap="round" stroke-width="2" opacity="0.38"/>
        <g id="Ticks-2" data-name="Ticks" transform="translate(0 5)" opacity="0.38" clip-path="url(#clip-path)">
          <circle id="Tick-8" data-name="Tick" cx="1" cy="1" r="1"/>
          <g transform="translate(28)">
            <circle id="Tick-9" data-name="Tick" cx="1" cy="1" r="1"/>
          </g>
          <g transform="translate(56)">
            <circle id="Tick-10" data-name="Tick" cx="1" cy="1" r="1"/>
          </g>
          <g transform="translate(84)">
            <circle id="Tick-11" data-name="Tick" cx="1" cy="1" r="1"/>
          </g>
          <g transform="translate(112)">
            <circle id="Tick-12" data-name="Tick" cx="1" cy="1" r="1"/>
          </g>
          <g transform="translate(140)">
            <circle id="Tick-13" data-name="Tick" cx="1" cy="1" r="1"/>
          </g>
        </g>
        <path id="Fill-2" data-name="Fill" d="M0,6H84" transform="translate(30)" fill="none" stroke="#bdbdbd" stroke-linecap="round" stroke-width="2"/>
        <circle id="Tick-14" data-name="Tick" cx="1" cy="1" r="1" transform="translate(71 5)" fill="rgba(255,255,255,0.7)"/>
        <circle id="Knob-3" data-name="Knob" cx="6" cy="6" r="6" transform="translate(108)" fill="#bdbdbd"/>
        <circle id="Knob-4" data-name="Knob" cx="6" cy="6" r="6" transform="translate(24)" fill="#bdbdbd"/>
      </g>
      <g id="Input_Slider_Range_Secondary_S-3" data-name="Input / Slider / Range / Secondary / S" transform="translate(1315.423 872)">
        <path id="Track-3" data-name="Track" d="M0,6H149.535" fill="none" stroke="#e200ff" stroke-linecap="round" stroke-width="2" opacity="0.38"/>
        <g id="Ticks-3" data-name="Ticks" transform="translate(0 5)" opacity="0.38" clip-path="url(#clip-path)">
          <circle id="Tick-15" data-name="Tick" cx="1" cy="1" r="1"/>
          <g transform="translate(28)">
            <circle id="Tick-16" data-name="Tick" cx="1" cy="1" r="1"/>
          </g>
          <g transform="translate(56)">
            <circle id="Tick-17" data-name="Tick" cx="1" cy="1" r="1"/>
          </g>
          <g transform="translate(84)">
            <circle id="Tick-18" data-name="Tick" cx="1" cy="1" r="1"/>
          </g>
          <g transform="translate(112)">
            <circle id="Tick-19" data-name="Tick" cx="1" cy="1" r="1"/>
          </g>
          <g transform="translate(140)">
            <circle id="Tick-20" data-name="Tick" cx="1" cy="1" r="1"/>
          </g>
        </g>
        <path id="Fill-3" data-name="Fill" d="M0,6H84" transform="translate(30)" fill="none" stroke="#e200ff" stroke-linecap="round" stroke-width="2"/>
        <circle id="Tick-21" data-name="Tick" cx="1" cy="1" r="1" transform="translate(71 5)" fill="rgba(255,255,255,0.7)"/>
        <circle id="Knob-5" data-name="Knob" cx="6" cy="6" r="6" transform="translate(108)" fill="#e200ff"/>
        <circle id="Knob-6" data-name="Knob" cx="6" cy="6" r="6" transform="translate(24)" fill="#e200ff"/>
      </g>
      <g id="Input_Slider_Range_Secondary_S-4" data-name="Input / Slider / Range / Secondary / S" transform="translate(1315.423 833)">
        <path id="Track-4" data-name="Track" d="M0,6H149.535" fill="none" stroke="#e200ff" stroke-linecap="round" stroke-width="2" opacity="0.38"/>
        <g id="Ticks-4" data-name="Ticks" transform="translate(0 5)" opacity="0.38" clip-path="url(#clip-path)">
          <circle id="Tick-22" data-name="Tick" cx="1" cy="1" r="1"/>
          <g transform="translate(28)">
            <circle id="Tick-23" data-name="Tick" cx="1" cy="1" r="1"/>
          </g>
          <g transform="translate(56)">
            <circle id="Tick-24" data-name="Tick" cx="1" cy="1" r="1"/>
          </g>
          <g transform="translate(84)">
            <circle id="Tick-25" data-name="Tick" cx="1" cy="1" r="1"/>
          </g>
          <g transform="translate(112)">
            <circle id="Tick-26" data-name="Tick" cx="1" cy="1" r="1"/>
          </g>
          <g transform="translate(140)">
            <circle id="Tick-27" data-name="Tick" cx="1" cy="1" r="1"/>
          </g>
        </g>
        <path id="Fill-4" data-name="Fill" d="M0,6H84" transform="translate(30)" fill="none" stroke="#e200ff" stroke-linecap="round" stroke-width="2"/>
        <circle id="Tick-28" data-name="Tick" cx="1" cy="1" r="1" transform="translate(71 5)" fill="rgba(255,255,255,0.7)"/>
        <circle id="Knob-7" data-name="Knob" cx="6" cy="6" r="6" transform="translate(108)" fill="#e200ff"/>
        <circle id="Knob-8" data-name="Knob" cx="6" cy="6" r="6" transform="translate(24)" fill="#e200ff"/>
      </g>
      <g id="Slider_Components_Slider_Label" data-name="Slider / Components / Slider Label" transform="translate(1408.423 797)" opacity="0.6">
        <rect id="Rectangle_133" data-name="Rectangle 133" width="41" height="30" rx="4" fill="#e200ff"/>
        <path id="Polygon_1" data-name="Polygon 1" d="M6,0l6,6H0Z" transform="translate(27 36) rotate(180)" fill="#e200ff"/>
        <text id="_20-2" data-name="20" transform="translate(13 21)" fill="#fff" font-size="14" font-family="Roboto-Medium, Roboto" font-weight="500" letter-spacing="0em"><tspan x="0" y="0">20</tspan></text>
      </g>
    </g>
    <text id="Subtitle_1-3" data-name="Subtitle 1" transform="translate(1109 765)" fill="#fff" font-size="12" font-family="Lato-Bold, Lato" font-weight="700" letter-spacing="0.05em"><tspan x="0" y="0">RANGES</tspan></text>
    <g id="Group_2128" data-name="Group 2128" transform="translate(124)">
      <g id="Group_1996" data-name="Group 1996" transform="translate(-59 407)">
        <rect id="Rectangle_913-2" data-name="Rectangle 913" width="170" height="32" rx="4" transform="translate(1044 158)" fill="#0f73b5"/>
        <text id="Venue" transform="translate(1060 177)" fill="#fff" font-size="8" font-family="Lato-Regular, Lato" letter-spacing="0.1em"><tspan x="0" y="0">VENUE</tspan></text>
        <path id="_Color-5" data-name=" ↳Color" d="M0,0,4,4,8,0Z" transform="translate(1198 172.5)" fill="#fff"/>
        <rect id="Rectangle_914-2" data-name="Rectangle 914" width="1" height="32" transform="translate(1189 158)" fill="#103c55"/>
      </g>
      <g id="Group_1997" data-name="Group 1997" transform="translate(119 407)">
        <rect id="Rectangle_913-3" data-name="Rectangle 913" width="170" height="32" rx="4" transform="translate(1044 158)" fill="#0f73b5"/>
        <text id="field_size" data-name="field size" transform="translate(1060 177)" fill="#fff" font-size="8" font-family="Lato-Regular, Lato" letter-spacing="0.1em"><tspan x="0" y="0">FIELD SIZE</tspan></text>
        <path id="_Color-6" data-name=" ↳Color" d="M0,0,4,4,8,0Z" transform="translate(1198 172.5)" fill="#fff"/>
        <rect id="Rectangle_914-3" data-name="Rectangle 914" width="1" height="32" transform="translate(1189 158)" fill="#103c55"/>
      </g>
      <g id="Group_1998" data-name="Group 1998" transform="translate(297 407)">
        <rect id="Rectangle_913-4" data-name="Rectangle 913" width="170" height="32" rx="4" transform="translate(1044 158)" fill="#0f73b5"/>
        <text id="Level" transform="translate(1060 177)" fill="#fff" font-size="8" font-family="Lato-Regular, Lato" letter-spacing="0.1em"><tspan x="0" y="0">LEVEL</tspan></text>
        <path id="_Color-7" data-name=" ↳Color" d="M0,0,4,4,8,0Z" transform="translate(1198 172.5)" fill="#fff"/>
        <rect id="Rectangle_914-4" data-name="Rectangle 914" width="1" height="32" transform="translate(1189 158)" fill="#103c55"/>
      </g>
      <g id="Group_1999" data-name="Group 1999" transform="translate(-59 455)">
        <rect id="Rectangle_913-5" data-name="Rectangle 913" width="170" height="32" rx="4" transform="translate(1044 158)" fill="#0f73b5"/>
        <text id="Going" transform="translate(1060 177)" fill="#fff" font-size="8" font-family="Lato-Regular, Lato" letter-spacing="0.1em"><tspan x="0" y="0">GOING</tspan></text>
        <path id="_Color-8" data-name=" ↳Color" d="M0,0,4,4,8,0Z" transform="translate(1198 172.5)" fill="#fff"/>
        <rect id="Rectangle_914-5" data-name="Rectangle 914" width="1" height="32" transform="translate(1189 158)" fill="#103c55"/>
      </g>
      <g id="Group_2000" data-name="Group 2000" transform="translate(119 455)">
        <rect id="Rectangle_913-6" data-name="Rectangle 913" width="170" height="32" rx="4" transform="translate(1044 158)" fill="#0f73b5"/>
        <text id="product" transform="translate(1060 177)" fill="#fff" font-size="8" font-family="Lato-Regular, Lato" letter-spacing="0.1em"><tspan x="0" y="0">PRODUCT</tspan></text>
        <path id="_Color-9" data-name=" ↳Color" d="M0,0,4,4,8,0Z" transform="translate(1198 172.5)" fill="#fff"/>
        <rect id="Rectangle_914-6" data-name="Rectangle 914" width="1" height="32" transform="translate(1189 158)" fill="#103c55"/>
      </g>
      <g id="Group_2002" data-name="Group 2002" transform="translate(-59 503)">
        <rect id="Rectangle_913-7" data-name="Rectangle 913" width="170" height="32" rx="4" transform="translate(1044 158)" fill="#0f73b5"/>
        <text id="win_place" data-name="win / place" transform="translate(1060 177)" fill="#fff" font-size="8" font-family="Lato-Regular, Lato" letter-spacing="0.1em"><tspan x="0" y="0">WIN / PLACE</tspan></text>
        <path id="_Color-10" data-name=" ↳Color" d="M0,0,4,4,8,0Z" transform="translate(1198 172.5)" fill="#fff"/>
        <rect id="Rectangle_914-7" data-name="Rectangle 914" width="1" height="32" transform="translate(1189 158)" fill="#103c55"/>
      </g>
      <g id="Group_2001" data-name="Group 2001" transform="translate(297 455)">
        <rect id="Rectangle_913-8" data-name="Rectangle 913" width="170" height="32" rx="4" transform="translate(1044 158)" fill="#0f73b5"/>
        <text id="day_of_week" data-name="day of week" transform="translate(1060 177)" fill="#fff" font-size="8" font-family="Lato-Regular, Lato" letter-spacing="0.1em"><tspan x="0" y="0">DAY OF WEEK</tspan></text>
        <path id="_Color-11" data-name=" ↳Color" d="M0,0,4,4,8,0Z" transform="translate(1198 172.5)" fill="#fff"/>
        <rect id="Rectangle_914-8" data-name="Rectangle 914" width="1" height="32" transform="translate(1189 158)" fill="#103c55"/>
      </g>
      <text id="Subtitle_1-4" data-name="Subtitle 1" transform="translate(985 546)" fill="#fff" font-size="12" font-family="Lato-Bold, Lato" font-weight="700" letter-spacing="0.05em"><tspan x="0" y="0">OTHER FILTERS</tspan></text>
    </g>
  </g>
</svg>
