<svg xmlns="http://www.w3.org/2000/svg" xmlns:xlink="http://www.w3.org/1999/xlink" width="550" height="179" viewBox="0 0 550 179">
  <defs>
    <filter id="Knob" x="9" y="0" width="50" height="50" filterUnits="userSpaceOnUse">
      <feOffset input="SourceAlpha"/>
      <feGaussianBlur stdDeviation="5" result="blur"/>
      <feFlood flood-color="#b50f0f" flood-opacity="0.38"/>
      <feComposite operator="in" in2="blur"/>
      <feComposite in="SourceGraphic"/>
    </filter>
  </defs>
  <g id="Group_2281" data-name="Group 2281" transform="translate(-580 -1685)">
    <rect id="Rectangle_1029" data-name="Rectangle 1029" width="550" height="1" transform="translate(580 1767)" fill="#fff" opacity="0.38"/>
    <rect id="Rectangle_1030" data-name="Rectangle 1030" width="550" height="1" transform="translate(580 1810)" fill="#fff" opacity="0.38"/>
    <g id="Group_2194" data-name="Group 2194" transform="translate(-4855 -1103)" opacity="0.38">
      <g id="Input_Select_Standard" data-name="Input / Select / Standard" transform="translate(5610 2938)">
        <g id="Input_Text_Field_Standard_End_Icon" data-name="Input / Text Field / Standard / End Icon">
          <g id="content">
            <line id="Indicator" x2="100.5" transform="translate(0.5 28)" fill="none" stroke="#15b50f" stroke-linecap="square" stroke-width="2"/>
            <g id="content-2" data-name="content">
              <g id="container" transform="translate(0 -20)">
                <g id="Trailing_icon" data-name="Trailing icon" transform="translate(77 20)">
                  <rect id="Boundary" width="24" height="24" fill="none"/>
                  <path id="_Color" data-name=" ↳Color" d="M0,0,5,5l5-5Z" transform="translate(7 10)" fill="#fff"/>
                </g>
                <g id="Trailing_icon-2" data-name="Trailing icon" transform="translate(77 20)">
                  <rect id="Boundary-2" data-name="Boundary" width="24" height="24" fill="none"/>
                  <path id="_Color-2" data-name=" ↳Color" d="M0,0,5,5l5-5Z" transform="translate(7 10)" fill="#fff"/>
                </g>
                <text id="Value" transform="translate(0 23)" fill="#fff" font-size="14" font-family="Lato-Regular, Lato" letter-spacing="0em"><tspan x="0" y="14">5 Mins</tspan></text>
              </g>
            </g>
          </g>
        </g>
      </g>
      <g id="Group_2190" data-name="Group 2190" transform="translate(-2475 253)">
        <text id="alert_1" data-name="alert 1" transform="translate(8136 2564)" fill="#fff" font-size="14" font-family="Lato-Regular, Lato"><tspan x="-26.372" y="0">ALERT 1</tspan></text>
        <g id="Input_Checkbox_Element_Checkbox" data-name="Input / Checkbox / Element / Checkbox" transform="translate(8126 2591)">
          <path id="Checkbox_-_Unchecked" data-name="Checkbox - Unchecked" d="M16,18H2a2,2,0,0,1-2-2V2A2,2,0,0,1,2,0H16a2,2,0,0,1,2,2V16A2,2,0,0,1,16,18ZM2,2V16H16V2Z" fill="#fff"/>
        </g>
        <g id="Input_Checkbox_Element_Checkbox-2" data-name="Input / Checkbox / Element / Checkbox" transform="translate(8126 2634)">
          <path id="Checkbox_-_Unchecked-2" data-name="Checkbox - Unchecked" d="M16,18H2a2,2,0,0,1-2-2V2A2,2,0,0,1,2,0H16a2,2,0,0,1,2,2V16A2,2,0,0,1,16,18ZM2,2V16H16V2Z" fill="#fff"/>
        </g>
      </g>
    </g>
    <g id="Group_2195" data-name="Group 2195" transform="translate(-4855 -1103)" opacity="0.38">
      <g id="Input_Select_Standard-2" data-name="Input / Select / Standard" transform="translate(5735 2938)">
        <g id="Input_Text_Field_Standard_End_Icon-2" data-name="Input / Text Field / Standard / End Icon">
          <g id="content-3" data-name="content">
            <line id="Indicator-2" data-name="Indicator" x2="100.5" transform="translate(0.5 28)" fill="none" stroke="#15b50f" stroke-linecap="square" stroke-width="2"/>
            <g id="content-4" data-name="content">
              <g id="container-2" data-name="container" transform="translate(0 -20)">
                <g id="Trailing_icon-3" data-name="Trailing icon" transform="translate(77 20)">
                  <rect id="Boundary-3" data-name="Boundary" width="24" height="24" fill="none"/>
                  <path id="_Color-3" data-name=" ↳Color" d="M0,0,5,5l5-5Z" transform="translate(7 10)" fill="#fff"/>
                </g>
                <g id="Trailing_icon-4" data-name="Trailing icon" transform="translate(77 20)">
                  <rect id="Boundary-4" data-name="Boundary" width="24" height="24" fill="none"/>
                  <path id="_Color-4" data-name=" ↳Color" d="M0,0,5,5l5-5Z" transform="translate(7 10)" fill="#fff"/>
                </g>
                <text id="Value-2" data-name="Value" transform="translate(0 23)" fill="#fff" font-size="14" font-family="Lato-Regular, Lato" letter-spacing="0em"><tspan x="0" y="14">10 Mins</tspan></text>
              </g>
            </g>
          </g>
        </g>
      </g>
      <g id="Group_2191" data-name="Group 2191" transform="translate(-2447 253)">
        <g id="Input_Checkbox_Element_Checkbox-3" data-name="Input / Checkbox / Element / Checkbox" transform="translate(8224 2591)">
          <path id="Checkbox_-_Unchecked-3" data-name="Checkbox - Unchecked" d="M16,18H2a2,2,0,0,1-2-2V2A2,2,0,0,1,2,0H16a2,2,0,0,1,2,2V16A2,2,0,0,1,16,18ZM2,2V16H16V2Z" fill="#fff"/>
        </g>
        <text id="alert_2" data-name="alert 2" transform="translate(8233 2564)" fill="#fff" font-size="14" font-family="Lato-Regular, Lato"><tspan x="-26.372" y="0">ALERT 2</tspan></text>
        <g id="Input_Checkbox_Element_Checkbox-4" data-name="Input / Checkbox / Element / Checkbox" transform="translate(8224 2634)">
          <path id="Checkbox_-_Unchecked-4" data-name="Checkbox - Unchecked" d="M16,18H2a2,2,0,0,1-2-2V2A2,2,0,0,1,2,0H16a2,2,0,0,1,2,2V16A2,2,0,0,1,16,18ZM2,2V16H16V2Z" fill="#fff"/>
        </g>
      </g>
    </g>
    <g id="Group_2196" data-name="Group 2196" transform="translate(-4855 -1103)" opacity="0.38">
      <g id="Input_Select_Standard-3" data-name="Input / Select / Standard" transform="translate(5860 2938)">
        <g id="Input_Text_Field_Standard_End_Icon-3" data-name="Input / Text Field / Standard / End Icon">
          <g id="content-5" data-name="content">
            <line id="Indicator-3" data-name="Indicator" x2="100.5" transform="translate(0.5 28)" fill="none" stroke="#15b50f" stroke-linecap="square" stroke-width="2"/>
            <g id="content-6" data-name="content">
              <g id="container-3" data-name="container" transform="translate(0 -20)">
                <g id="Trailing_icon-5" data-name="Trailing icon" transform="translate(77 20)">
                  <rect id="Boundary-5" data-name="Boundary" width="24" height="24" fill="none"/>
                  <path id="_Color-5" data-name=" ↳Color" d="M0,0,5,5l5-5Z" transform="translate(7 10)" fill="#fff"/>
                </g>
                <g id="Trailing_icon-6" data-name="Trailing icon" transform="translate(77 20)">
                  <rect id="Boundary-6" data-name="Boundary" width="24" height="24" fill="none"/>
                  <path id="_Color-6" data-name=" ↳Color" d="M0,0,5,5l5-5Z" transform="translate(7 10)" fill="#fff"/>
                </g>
                <text id="Value-3" data-name="Value" transform="translate(0 23)" fill="#fff" font-size="14" font-family="Lato-Regular, Lato" letter-spacing="0em"><tspan x="0" y="14">15 Mins +</tspan></text>
              </g>
            </g>
          </g>
        </g>
      </g>
      <g id="Group_2192" data-name="Group 2192" transform="translate(-2420 253)">
        <g id="Input_Checkbox_Element_Checkbox-5" data-name="Input / Checkbox / Element / Checkbox" transform="translate(8322 2591)">
          <path id="Checkbox_-_Unchecked-5" data-name="Checkbox - Unchecked" d="M16,18H2a2,2,0,0,1-2-2V2A2,2,0,0,1,2,0H16a2,2,0,0,1,2,2V16A2,2,0,0,1,16,18ZM2,2V16H16V2Z" fill="#fff"/>
        </g>
        <text id="alert_3" data-name="alert 3" transform="translate(8331 2564)" fill="#fff" font-size="14" font-family="Lato-Regular, Lato"><tspan x="-26.372" y="0">ALERT 3</tspan></text>
        <g id="Input_Checkbox_Element_Checkbox-6" data-name="Input / Checkbox / Element / Checkbox" transform="translate(8322 2634)">
          <path id="Checkbox_-_Unchecked-6" data-name="Checkbox - Unchecked" d="M16,18H2a2,2,0,0,1-2-2V2A2,2,0,0,1,2,0H16a2,2,0,0,1,2,2V16A2,2,0,0,1,16,18ZM2,2V16H16V2Z" fill="#fff"/>
        </g>
      </g>
    </g>
    <text id="Enable_Alert" data-name="Enable Alert" transform="translate(605 1756)" fill="#fff" font-size="14" font-family="Lato-Regular, Lato" opacity="0.38"><tspan x="0" y="0">ENABLE ALERT</tspan></text>
    <text id="play_sound" data-name="play sound" transform="translate(605 1799)" fill="#fff" font-size="14" font-family="Lato-Regular, Lato" opacity="0.38"><tspan x="0" y="0">PLAY SOUND</tspan></text>
    <g id="Input_Switch_Element_Switch" data-name="Input / Switch / Element / Switch" transform="translate(604 1700)">
      <path id="Track" d="M7,0H27a7,7,0,0,1,0,14H7A7,7,0,0,1,7,0Z" transform="translate(0 3)" fill="#b50f0f" opacity="0.6"/>
      <g transform="matrix(1, 0, 0, 1, -24, -15)" filter="url(#Knob)">
        <circle id="Knob-2" data-name="Knob" cx="10" cy="10" r="10" transform="translate(24 15)" fill="#b50f0f"/>
      </g>
    </g>
  </g>
</svg>
