<svg xmlns="http://www.w3.org/2000/svg" width="16" height="7" viewBox="0 0 16 7">
  <path id="Path_2410" data-name="Path 2410" d="M34.076-589.392h.084a1.093,1.093,0,0,0,.681-.256q.328-.256.345-.274a.119.119,0,0,0,.025-.055.058.058,0,0,0-.008-.055.08.08,0,0,0-.042-.046.036.036,0,0,0-.042.009.875.875,0,0,1-.378.082,1.781,1.781,0,0,1-.361-.064,1.518,1.518,0,0,0-.639-.046,1.65,1.65,0,0,0-.622.229l-.025.027-.008.027-.084.219v.037l.017.037a.03.03,0,0,0,.017.027.07.07,0,0,0,.034.009q.134.018.252.027t.218.009q.134,0,.261.009a1.716,1.716,0,0,1,.277.046ZM48.983-590.6v-.027l-.017-.027a.12.12,0,0,0-.017-.064.3.3,0,0,0-.034-.046q-.269-.439-.529-.851t-.529-.832v-.018q-.05-.073-.109-.156a.533.533,0,0,0-.143-.137q-.252-.2-.538-.393l-.588-.393a.388.388,0,0,0-.126-.073.334.334,0,0,0-.092-.018.047.047,0,0,0-.034-.018H46.21q-.017-.018-.025-.009a.033.033,0,0,1-.025.009q-.2.092-.2.229a.669.669,0,0,0,.034.229.219.219,0,0,0,.008.064.163.163,0,0,1,.008.046.623.623,0,0,0-.084-.037.294.294,0,0,0-.1-.018q-.134-.055-.286-.11t-.286-.11a3.319,3.319,0,0,0-.765-.21,1.552,1.552,0,0,0-.849.119.175.175,0,0,0-.059.009.169.169,0,0,1-.059.009q-.218-.018-.445-.046a3.7,3.7,0,0,0-.445-.027q-.353-.037-.714-.064t-.714-.064h-.084q-.521-.037-1.059-.027a2.234,2.234,0,0,0-1.042.284.155.155,0,0,1-.076.018.155.155,0,0,0-.076.018h-.017a1.653,1.653,0,0,0-.857.3,4.93,4.93,0,0,0-.655.558.791.791,0,0,1-.092.119l-.109.119a11.867,11.867,0,0,1-1,.979,3.126,3.126,0,0,1-1.689.722q-.017,0-.042.027a.077.077,0,0,0-.025.046.12.12,0,0,0,.017.064.055.055,0,0,0,.05.027l.286.009a2.511,2.511,0,0,0,.723-.119,4.334,4.334,0,0,0,.95-.439,5.318,5.318,0,0,0,1.185-1.006q-.017.036-.034.082a.246.246,0,0,1-.05.082l-.168.366-.168.366-.563.393-.849.339H35.74q-.017.018-.235.219t-.353.348a1.394,1.394,0,0,1-.345.3,1.432,1.432,0,0,1-.429.174,1.476,1.476,0,0,0-.6.274,2.193,2.193,0,0,0-.479.53.055.055,0,0,0-.017.037v.256a.087.087,0,0,0,.008.037.143.143,0,0,0,.025.037.07.07,0,0,1,.034.009c.011.006.022,0,.034-.009a1.14,1.14,0,0,0,.176-.055q.092-.037.176-.073.185-.073.387-.146t.4-.128a1.382,1.382,0,0,0,.353-.146,1.31,1.31,0,0,0,.286-.238,1.144,1.144,0,0,1,.37-.274,2.483,2.483,0,0,1,.42-.146,2.153,2.153,0,0,1,.21-.064q.109-.027.227-.046l.235-.073.235-.073q.269-.073.538-.137a3.29,3.29,0,0,1,.538-.082,1.759,1.759,0,0,0,.714-.174,1.8,1.8,0,0,0,.58-.485q.05-.055.109-.11a.781.781,0,0,0,.109-.128q.084-.073.16-.146a.7.7,0,0,0,.126-.165,1.81,1.81,0,0,1,.647-.567.822.822,0,0,1,.765.055.311.311,0,0,1,.1.064.471.471,0,0,0,.084.064.707.707,0,0,1,.134.11l.084.091a5.249,5.249,0,0,0,.571.357q.319.174.689.393l.05.036q.235.128.487.247a.812.812,0,0,0,.521.064.442.442,0,0,1,.336.082.713.713,0,0,1,.185.375,3,3,0,0,0,.286.668,4.219,4.219,0,0,0,.471.65q.2.219.4.457l.387.457q.1.128.193.238t.193.238l.025.027.025.027a1.184,1.184,0,0,0,.1.128.155.155,0,0,0,.118.055h.319a2.4,2.4,0,0,0,.353-.027,1,1,0,0,0,.387-.155q.017,0,.025-.027a.162.162,0,0,0,.008-.046.163.163,0,0,0-.008-.046c-.006-.018-.014-.027-.025-.027a.924.924,0,0,0-.1-.064.321.321,0,0,1-.084-.064q-.084-.055-.168-.1a.323.323,0,0,0-.151-.046.458.458,0,0,1-.269-.082.814.814,0,0,1-.218-.247q-.218-.311-.429-.64t-.412-.64a2.266,2.266,0,0,1-.185-.274,2.268,2.268,0,0,0-.185-.274.477.477,0,0,1-.076-.2.524.524,0,0,1,.025-.2q.067.018.151.046t.168.064q.2.073.412.146t.429.128a1.6,1.6,0,0,1,.521.21,2.231,2.231,0,0,1,.471.393.268.268,0,0,0,.042.037.281.281,0,0,1,.042.037l.059.064.042.046a.619.619,0,0,0,.429.229.733.733,0,0,0,.479-.192l.008-.018.008-.037v-.036l-.017-.037a7.041,7.041,0,0,0-.958-.842q-.5-.366-1.008-.713-.2-.146-.42-.293t-.42-.311h.008l.008-.018q.05-.037.092-.064a.447.447,0,0,1,.092-.046.924.924,0,0,1,.437-.128.759.759,0,0,1,.42.146,4.294,4.294,0,0,0,.454.265q.235.119.471.229.118.055.244.119t.261.137a.5.5,0,0,0,.37.037.525.525,0,0,0,.286-.293.054.054,0,0,0,.017-.037.054.054,0,0,0-.017-.036Zm-8.319-2.451a2.279,2.279,0,0,0,.244-.046.761.761,0,0,1,.176-.027h0l.084.018q.353.018.706.046t.706.064h0l.445.037.462.036h.05a.728.728,0,0,0,.109-.009.582.582,0,0,0,.109-.027q.05.476.109.979t.109.924Z" transform="translate(-33 593.667)" fill="#fff"/>
</svg>
