<svg xmlns="http://www.w3.org/2000/svg" width="16" height="10" viewBox="0 0 16 10">
  <path id="Path_2409" data-name="Path 2409" d="M7035.66-342.126c.157,0,.331-.118.191-.266s.1-.381.043-1.237c-.026-.372-.292-.415-.318-.407s-1.375-.216-1.375-.216l.567,1.393-.387.493s-.542.035-.971.1a1.211,1.211,0,0,1-.6-.017s-.748-.338-.825-.381-.259-.127.206-.242.43.069.438.234.4-.043.559.078a1.233,1.233,0,0,0,1.022-.277s-.937-1.177-1.134-1.367a8.31,8.31,0,0,1-2.588-1.013,1.868,1.868,0,0,0,0,1.506c.11.415.732.519,1.016.614s.344,1.056.344,1.056.876.6,1.083.8c-.042.225-.687.19-.687.19a.721.721,0,0,0-.086-.389c-.1-.156-.481.009-.516-.069-.163-.607-1.291-1.323-1.679-1.558a.216.216,0,0,1-.084-.095l-.019-.04a.214.214,0,0,0-.18-.123l-.412-.027a.24.24,0,0,1-.191-.361l.2-.351a.5.5,0,0,0-.155-.662c-.234-.154-.555-.374-.913-.641a1.617,1.617,0,0,1-.808-1.973c-.782.009-.748.632-1.547,1.532s-2.02.571-3.369.286c.876.225,1.882-1.341,2.871-2.051a3.425,3.425,0,0,1,2.475-.346c.856-1.252,3.324-.092,3.439-.04l.043-.137a.062.062,0,0,1,.086-.045,5.4,5.4,0,0,0,1.133.214l.007-.448a4.592,4.592,0,0,1-.97-.184c-1.005-.278-.885-1.108-.318-1.454a6.544,6.544,0,0,1,2.183-.389s.055-.715.708-.637a.637.637,0,0,1,.569.71.1.1,0,0,0,.038.082l.052.04a.023.023,0,0,1-.016.041l-.265-.02a.511.511,0,0,1-.556.534,1.275,1.275,0,0,1-.268-.07c-.02-.006-.086.814-.107,1.117a.119.119,0,0,0,.114.127l.144,0c.016-.017-.091-.136-.068-.135.45.018.857-.863,1.629-1.18a1.865,1.865,0,0,1,.545-.139s-.034-.061-.154-.234a1.262,1.262,0,0,1,.748.216c.748.1,1.642,1.289,1.856,1.523s-.035.554-.215.632-.267.043-.3-.043a1.018,1.018,0,0,0-.609-.329,1.493,1.493,0,0,1-.886-.138c-.687.423-.945,1.849-.963,2.054a2.8,2.8,0,0,1-.1.568,2.183,2.183,0,0,1-.379.622.151.151,0,0,0,.045.228l.523.283a1.941,1.941,0,0,0,.37.156.652.652,0,0,1,.361.355,8.819,8.819,0,0,1-.129,1.852c-.172.779-.559.891-.559.891v-.692A.105.105,0,0,1,7035.66-342.126Zm-6.778-6.122a5.074,5.074,0,0,1,.839.1,1.533,1.533,0,0,1,1.346,1.712,2.012,2.012,0,0,1-.35.872,3.017,3.017,0,0,0,1.927.434c.055-.006.109-.014.164-.023s.109-.019.163-.03a1.785,1.785,0,0,0,1.613-1.5c.283-2.583,1.258-3.15,1.572-3.15-.817.073-1.591,1.392-1.591,1.392l-.456-.022s.455.028.164.367c-.18.209-.6.03-.6.03a2.459,2.459,0,0,1-.061.367c-.064.514.428,1.169-.229,1.194a4.2,4.2,0,0,1-1.68-.153.857.857,0,0,1-.5-1.1A4.509,4.509,0,0,0,7028.882-348.248Zm4.088-1.01-.437.049s.354.167.425.2Zm2.6.976" transform="translate(-7022.487 351.083)" fill="#fff"/>
</svg>
